<?xml version="1.0" standalone="no"?>
<!DOCTYPE svg PUBLIC "-//W3C//DTD SVG 20010904//EN"
 "http://www.w3.org/TR/2001/REC-SVG-20010904/DTD/svg10.dtd">
<svg version="1.0" xmlns="http://www.w3.org/2000/svg"
 width="1178.000000pt" height="558.000000pt" viewBox="0 0 1178.000000 558.000000"
 preserveAspectRatio="xMidYMid meet">

<g transform="translate(0.000000,558.000000) scale(0.100000,-0.100000)"
fill="#000000" stroke="none">
<path d="M10050 5552 c-47 -12 -191 -47 -321 -76 -129 -30 -303 -77 -387 -105
-83 -28 -207 -65 -274 -82 -68 -17 -208 -55 -313 -84 -223 -63 -563 -149 -830
-210 -193 -44 -461 -119 -865 -244 -187 -58 -218 -70 -185 -73 22 -1 -138 -5
-355 -8 l-394 -5 -28 -90 c-15 -49 -31 -97 -35 -105 -3 -8 -6 -18 -5 -22 1 -4
-4 -5 -12 -2 -14 5 -349 -77 -514 -126 -53 -16 -97 -28 -98 -27 -1 2 -84 271
-110 360 -5 16 -33 17 -400 17 l-394 0 0 -965 0 -965 225 0 225 0 0 94 c0 82
2 95 18 100 9 3 89 25 177 50 88 24 167 47 176 51 14 5 23 -14 53 -112 21 -65
42 -133 47 -150 l11 -33 233 0 233 0 15 48 c90 303 151 478 166 479 10 1 81
20 158 42 78 23 144 41 147 41 3 0 6 -137 6 -305 l0 -305 240 0 240 0 0 370 0
370 23 10 c12 5 90 28 173 50 154 40 214 50 184 29 -19 -13 -52 -21 365 95
650 182 624 176 614 152 -9 -23 -294 -775 -339 -896 -15 -41 -37 -99 -49 -127
l-21 -53 259 0 259 0 72 205 72 205 367 0 366 0 68 -205 68 -205 280 0 279 0
-25 68 c-14 37 -131 344 -259 682 -129 338 -232 616 -231 618 2 2 54 16 117
32 62 16 221 65 353 110 132 44 248 84 258 87 12 4 7 -9 -19 -48 -120 -176
-181 -459 -155 -717 27 -263 107 -448 258 -593 202 -195 472 -281 888 -282
232 -1 430 23 618 74 l37 10 0 539 0 540 -390 0 -390 0 0 -185 0 -185 145 0
145 0 0 -200 c0 -153 -3 -200 -12 -201 -7 0 -49 -4 -93 -9 -373 -39 -634 166
-675 531 -35 304 87 555 323 668 118 57 218 75 386 69 159 -6 263 -30 389 -88
56 -26 84 -35 87 -27 6 20 44 391 41 395 -12 11 -261 64 -370 78 -174 22 -456
15 -599 -16 -116 -24 -238 -67 -313 -110 -46 -26 -52 -27 -42 -10 7 11 19 20
25 20 7 0 23 12 36 26 12 14 39 34 59 45 20 10 59 35 87 56 43 32 49 41 44 65
-6 32 -6 32 157 83 140 44 305 101 328 114 10 5 93 33 183 61 90 27 169 56
174 63 6 7 28 20 50 28 22 8 44 24 49 35 5 12 25 27 43 33 34 13 42 26 21 34
-7 2 11 16 40 31 l53 27 -23 19 c-17 15 -20 22 -10 28 23 16 -212 2 -314 -18
-56 -11 -115 -20 -131 -20 -16 0 -72 -13 -123 -30 -121 -38 -132 -38 -117 -5
9 19 30 31 89 51 l77 25 -25 24 c-14 13 -23 29 -19 35 3 5 -1 13 -10 16 -12 5
-13 9 -4 20 9 11 8 14 -5 14 -35 0 -13 30 39 54 30 14 55 30 55 35 0 42 -204
14 -545 -75 -158 -41 -585 -134 -609 -134 -15 1 33 40 49 40 6 0 20 9 30 20
17 19 17 20 -1 20 -17 1 -17 2 -3 13 27 21 30 45 6 50 -18 3 -11 9 34 30 31
15 64 36 74 47 20 23 30 20 -85 24 -31 1 -92 -9 -140 -22z m-992 -879 c-86 -2
-230 -2 -320 0 -90 1 -19 3 157 3 176 0 249 -2 163 -3z m1252 -186 c0 -2 -10
-12 -22 -23 l-23 -19 19 23 c18 21 26 27 26 19z m-100 -101 c0 -2 -8 -10 -17
-17 -16 -13 -17 -12 -4 4 13 16 21 21 21 13z m-3783 -68 c-3 -7 -5 -2 -5 12 0
14 2 19 5 13 2 -7 2 -19 0 -25z m-1424 -163 c-6 -5 -14 -26 -16 -45 -2 -19 -5
4 -5 51 -1 47 -4 108 -7 135 -4 36 1 26 18 -41 18 -71 20 -92 10 -100z m1414
-27 c-2 -13 -4 -5 -4 17 -1 22 1 32 4 23 2 -10 2 -28 0 -40z m2625 -370 c43
-127 76 -233 74 -235 -2 -2 -109 -2 -238 -1 l-235 3 75 216 74 216 72 15 c39
9 78 16 86 17 11 1 36 -61 92 -231z m-3312 -481 c0 -5 -4 -5 -10 -2 -5 3 -10
14 -10 23 0 15 2 15 10 2 5 -8 10 -19 10 -23z"/>
<path d="M0 3705 l0 -965 260 0 260 0 0 400 0 400 295 0 295 0 0 -400 0 -400
260 0 260 0 0 965 0 965 -260 0 -260 0 0 -365 0 -365 -295 0 -295 0 0 365 0
365 -260 0 -260 0 0 -965z"/>
<path d="M1980 3705 l0 -965 558 -1 557 0 -350 -119 c-192 -66 -408 -134 -480
-151 -115 -29 -134 -37 -170 -70 -22 -21 -37 -41 -33 -45 5 -4 33 -2 64 5 30
7 58 11 60 8 9 -9 -29 -38 -57 -44 -40 -8 -43 -16 -19 -58 16 -29 18 -40 9
-51 -19 -23 87 -18 193 10 51 13 112 27 136 31 l42 7 0 -76 0 -76 116 0 115 0
-3 100 c-2 55 -2 100 -1 100 18 0 362 76 423 94 219 63 778 218 888 246 68 17
183 52 256 79 73 26 156 54 184 61 l52 12 0 604 c0 478 -3 602 -12 599 -7 -2
-76 -23 -153 -45 -77 -22 -148 -43 -157 -46 -17 -5 -18 17 -18 375 l0 381
-260 0 -260 0 0 -453 0 -453 -92 -24 c-51 -13 -137 -37 -190 -55 l-98 -31 0
133 0 133 -390 0 -390 0 0 190 0 190 413 2 412 3 3 183 2 182 -675 0 -675 0 0
-965z m825 -205 c-82 -27 -183 -58 -222 -70 l-73 -22 0 -114 c0 -92 3 -114 14
-114 8 0 65 16 128 36 257 81 532 154 578 154 46 0 49 -2 104 -66 31 -36 56
-69 56 -74 0 -17 -30 -28 -175 -69 l-150 -41 -282 0 -283 0 0 215 0 215 228
-1 227 0 -150 -49z m642 -574 c-3 -8 1 -20 9 -26 8 -7 14 -16 14 -20 0 -7 -90
-50 -105 -50 -3 0 -5 21 -3 47 3 41 6 48 28 54 43 12 63 10 57 -5z"/>
<path d="M0 1685 l0 -576 113 3 112 3 3 248 2 247 215 0 215 0 2 -247 3 -248
113 -3 112 -3 0 576 0 576 -112 -3 -113 -3 -3 -227 -2 -228 -215 0 -215 0 -2
228 -3 227 -112 3 -113 3 0 -576z"/>
<path d="M7430 2185 l-95 -32 -5 -99 -5 -99 -88 -3 -88 -3 3 -82 3 -82 76 -3
76 -3 5 -237 c4 -189 9 -247 23 -286 38 -109 95 -148 227 -154 48 -3 108 -1
133 2 l45 7 0 78 0 77 -64 -4 c-127 -8 -136 12 -136 302 l0 215 98 3 97 3 0
80 0 80 -97 3 -96 3 -7 117 c-3 64 -7 124 -8 133 -2 14 -16 11 -97 -16z"/>
<path d="M1605 1954 c-218 -53 -335 -277 -280 -537 27 -127 108 -232 218 -282
100 -46 303 -51 442 -10 l55 16 0 85 c0 78 -2 85 -17 79 -178 -75 -322 -72
-417 6 -40 34 -75 97 -76 137 l0 22 291 0 292 0 -6 93 c-13 219 -102 348 -269
393 -66 17 -155 17 -233 -2z m194 -149 c54 -27 85 -77 105 -167 l6 -28 -190 0
c-178 0 -190 1 -190 19 0 56 50 139 104 172 38 23 124 25 165 4z"/>
<path d="M4390 1956 c-73 -16 -130 -47 -169 -92 -42 -48 -51 -73 -51 -146 0
-111 44 -160 229 -252 51 -26 104 -59 117 -73 47 -51 20 -115 -54 -129 -54
-10 -161 2 -226 26 -72 27 -77 22 -74 -75 l3 -69 45 -14 c25 -7 97 -16 161
-19 165 -8 257 17 328 88 52 52 66 86 65 165 -1 113 -50 174 -191 239 -43 19
-98 46 -123 59 -122 63 -65 168 83 152 32 -3 85 -17 118 -30 33 -13 61 -21 63
-17 2 3 6 40 8 81 l3 75 -85 22 c-95 24 -169 27 -250 9z"/>
<path d="M6460 1956 c-139 -31 -220 -115 -220 -231 0 -111 46 -166 213 -251
120 -62 157 -93 157 -133 0 -31 -7 -42 -40 -64 -44 -31 -218 -14 -300 28 -28
15 -30 14 -35 -8 -3 -12 -5 -52 -3 -87 l3 -65 65 -17 c75 -19 244 -23 318 -7
204 43 289 255 160 396 -39 42 -69 59 -256 145 -53 25 -79 69 -63 105 27 59
144 67 264 18 33 -13 62 -23 63 -22 1 1 4 38 6 82 l3 80 -85 22 c-95 24 -169
27 -250 9z"/>
<path d="M8375 1957 c-111 -29 -208 -105 -255 -202 -33 -69 -52 -180 -45 -260
24 -242 162 -379 404 -401 74 -7 201 8 274 32 l47 16 0 83 0 84 -67 -26 c-57
-22 -85 -26 -168 -27 -89 -1 -105 2 -150 26 -60 31 -78 49 -104 108 -39 86
-59 80 269 80 l290 0 0 69 c0 261 -131 418 -359 427 -49 2 -107 -2 -136 -9z
m207 -162 c38 -26 72 -86 83 -147 l7 -38 -192 0 -192 0 7 37 c13 70 54 131
110 161 11 6 47 12 80 12 48 0 68 -5 97 -25z"/>
<path d="M9650 1956 c-61 -16 -112 -49 -155 -99 l-35 -41 0 67 0 67 -100 0
-100 0 0 -420 0 -421 108 3 107 3 5 260 c5 255 6 262 31 310 59 115 214 130
266 25 16 -30 19 -74 23 -315 l5 -280 107 -3 106 -3 4 258 c4 276 9 305 61
361 48 52 128 68 187 37 61 -31 64 -51 70 -365 l5 -285 108 -3 108 -3 -3 323
c-3 313 -4 325 -26 373 -62 134 -189 191 -337 150 -77 -20 -134 -59 -171 -115
l-27 -40 -32 48 c-70 104 -185 143 -315 108z"/>
<path d="M11265 1957 c-153 -40 -253 -143 -290 -298 -51 -218 36 -434 208
-519 116 -56 298 -63 455 -15 l52 16 0 85 c0 78 -2 85 -17 79 -161 -70 -314
-71 -406 -2 -44 34 -87 105 -87 144 l0 23 290 0 290 0 0 63 c0 199 -76 339
-218 404 -66 31 -198 40 -277 20z m216 -172 c37 -36 64 -86 73 -137 l7 -38
-191 0 -190 0 0 23 c0 32 43 118 71 143 43 39 63 45 131 41 59 -2 71 -6 99
-32z"/>
<path d="M2497 1943 c-9 -8 -9 -191 0 -545 l6 -278 104 0 103 0 0 415 0 415
-103 0 c-57 0 -107 -3 -110 -7z"/>
<path d="M3130 1865 l0 -85 206 -2 207 -3 -212 -237 -211 -236 0 -91 0 -91
335 0 335 0 0 80 0 80 -215 2 -215 3 214 241 214 240 2 65 c1 35 2 76 1 92
l-1 27 -330 0 -330 0 0 -85z"/>
<path d="M5073 1938 c2 -7 75 -198 161 -423 86 -226 156 -417 156 -423 0 -22
-31 -76 -63 -110 -36 -38 -93 -56 -148 -47 -44 8 -43 8 -54 -101 l-6 -61 32
-7 c57 -11 165 -6 212 10 66 22 138 90 179 171 34 65 378 969 378 992 0 8 -32
11 -107 9 l-107 -3 -95 -302 c-53 -166 -98 -304 -101 -307 -3 -2 -45 120 -94
272 -49 152 -95 292 -102 310 l-13 32 -117 0 c-89 0 -115 -3 -111 -12z"/>
</g>
</svg>
